# xmcd
#
# Track frame offsets:
# 150
# 16385
# 32062
# 70907
# 101787
# 119520
# 135805
#
# Disc length: 2032 seconds
#
#
# Revision: 4
# Processed by: cddbd v1.5.2PL0 Copyright (c) Steve Scherf et al.
# Submitted via: FreeRIP 2.951 
#
DISCID=5807ee07
DTITLE=Diana King - I Say A Little Prayer [CDS)
DYEAR=1997
DGENRE=
TTITLE0=I Say A Little Prayer
TTITLE1=I Say A Little Prayer (Love to infinity's Classic Radio Mix)
TTITLE2=I Say A Little Prayer (Love to infinity's Vortex Voyager Mix)
TTITLE3=I Say A Little Prayer (Love to infinity's Classic Mix)
TTITLE4=I Say A Little Prayer (Keith Andes Remix)
TTITLE5=I Say A Little Prayer (Love to infinity's Love Groove)
TTITLE6=Piece of My Heart
EXTD=corrected by rlokker@worldonline.nl
EXTT0=
EXTT1=
EXTT2=
EXTT3=
EXTT4=
EXTT5=
EXTT6=
PLAYORDER=
